<svg width="1456" height="1199" viewBox="0 0 1456 1199" fill="none" xmlns="http://www.w3.org/2000/svg">
<path fill-rule="evenodd" clip-rule="evenodd" d="M358 48L412 0L466 48V59H457V146H517V162H792V201H823L823 272H774L774 343H737V515H1421.47C1440.24 515 1455.47 530.222 1455.47 549V1002C1455.47 1020.78 1440.24 1036 1421.47 1036H737V1057H773V1128H823V1199H0V1128H49V1057H85V343H50V272H0V201H32V162H307V146H365V59H358V48ZM120 1028V371H704V1028H120ZM131 380H407V1020H131V380ZM265.167 394H146V504H265.167V394ZM391 394H281V504H391V394ZM265.167 521H146V631H265.167V521ZM281 521H391V631H281V521ZM392 700H376V784H392V700ZM418 380H694V1020H418V380ZM679 394H559.833V504H679V394ZM544 394H434V504H544V394ZM679 521H559.833V631H679V521ZM434 521H544V631H434V521ZM449 700H433V784H449V700ZM445 62H378V140H445V62ZM1355.82 563.994C1355.82 558.471 1360.29 553.994 1365.82 553.994H1410.8C1416.33 553.994 1420.8 558.471 1420.8 563.994V608.983C1420.8 614.506 1416.33 618.983 1410.8 618.983H1365.82C1360.29 618.983 1355.82 614.506 1355.82 608.983V563.994ZM763.578 634.147C758.055 634.147 753.578 638.624 753.578 644.147V907.935C753.578 913.458 758.055 917.935 763.578 917.935H1065.28C1070.8 917.935 1075.28 913.458 1075.28 907.935V644.147C1075.28 638.624 1070.8 634.147 1065.28 634.147H763.578ZM1109.11 634.147C1103.58 634.147 1099.11 638.624 1099.11 644.147V907.935C1099.11 913.458 1103.58 917.935 1109.11 917.935H1410.8C1416.33 917.935 1420.8 913.458 1420.8 907.935V644.147C1420.8 638.624 1416.33 634.147 1410.8 634.147H1109.11ZM1280.25 553.994C1274.72 553.994 1270.25 558.471 1270.25 563.994V608.983C1270.25 614.506 1274.72 618.983 1280.25 618.983H1325.23C1330.76 618.983 1335.23 614.506 1335.23 608.983V563.994C1335.23 558.471 1330.76 553.994 1325.23 553.994H1280.25ZM1184.68 563.994C1184.68 558.471 1189.15 553.994 1194.68 553.994H1239.67C1245.19 553.994 1249.67 558.471 1249.67 563.994V608.983C1249.67 614.506 1245.19 618.983 1239.67 618.983H1194.68C1189.15 618.983 1184.68 614.506 1184.68 608.983V563.994ZM1109.11 553.994C1103.58 553.994 1099.11 558.471 1099.11 563.994V608.983C1099.11 614.506 1103.58 618.983 1109.11 618.983H1154.1C1159.62 618.983 1164.1 614.506 1164.1 608.983V563.994C1164.1 558.471 1159.62 553.994 1154.1 553.994H1109.11ZM1010.29 563.994C1010.29 558.471 1014.76 553.994 1020.29 553.994H1065.28C1070.8 553.994 1075.28 558.471 1075.28 563.994V608.983C1075.28 614.506 1070.8 618.983 1065.28 618.983H1020.29C1014.76 618.983 1010.29 614.506 1010.29 608.983V563.994ZM934.717 553.994C929.194 553.994 924.717 558.471 924.717 563.994V608.983C924.717 614.506 929.194 618.983 934.717 618.983H979.707C985.23 618.983 989.707 614.506 989.707 608.983V563.994C989.707 558.471 985.23 553.994 979.707 553.994H934.717ZM839.148 563.994C839.148 558.471 843.625 553.994 849.148 553.994H894.137C899.66 553.994 904.137 558.471 904.137 563.994V608.983C904.137 614.506 899.66 618.983 894.137 618.983H849.148C843.625 618.983 839.148 614.506 839.148 608.983V563.994ZM763.578 553.994C758.055 553.994 753.578 558.471 753.578 563.994V608.984C753.578 614.507 758.055 618.984 763.578 618.984H808.568C814.091 618.984 818.568 614.507 818.568 608.984V563.994C818.568 558.471 814.091 553.994 808.568 553.994H763.578ZM1355.82 943.1C1355.82 937.577 1360.29 933.1 1365.82 933.1H1410.8C1416.33 933.1 1420.8 937.577 1420.8 943.1V988.089C1420.8 993.612 1416.33 998.089 1410.8 998.089H1365.82C1360.29 998.089 1355.82 993.612 1355.82 988.089V943.1ZM1280.25 933.1C1274.72 933.1 1270.25 937.577 1270.25 943.1V988.089C1270.25 993.612 1274.72 998.089 1280.25 998.089H1325.23C1330.76 998.089 1335.23 993.612 1335.23 988.089V943.1C1335.23 937.577 1330.76 933.1 1325.23 933.1H1280.25ZM1184.68 943.1C1184.68 937.577 1189.15 933.1 1194.68 933.1H1239.67C1245.19 933.1 1249.67 937.577 1249.67 943.1V988.089C1249.67 993.612 1245.19 998.089 1239.67 998.089H1194.68C1189.15 998.089 1184.68 993.612 1184.68 988.089V943.1ZM1109.11 933.1C1103.58 933.1 1099.11 937.577 1099.11 943.1V988.089C1099.11 993.612 1103.58 998.089 1109.11 998.089H1154.1C1159.62 998.089 1164.1 993.612 1164.1 988.089V943.1C1164.1 937.577 1159.62 933.1 1154.1 933.1H1109.11ZM1010.29 943.1C1010.29 937.577 1014.76 933.1 1020.29 933.1H1065.28C1070.8 933.1 1075.28 937.577 1075.28 943.1V988.089C1075.28 993.612 1070.8 998.089 1065.28 998.089H1020.29C1014.76 998.089 1010.29 993.612 1010.29 988.089V943.1ZM934.717 933.1C929.194 933.1 924.717 937.577 924.717 943.1V988.089C924.717 993.612 929.194 998.089 934.717 998.089H979.707C985.23 998.089 989.707 993.612 989.707 988.089V943.1C989.707 937.577 985.23 933.1 979.707 933.1H934.717ZM839.148 943.1C839.148 937.577 843.625 933.1 849.148 933.1H894.137C899.66 933.1 904.137 937.577 904.137 943.1V988.089C904.137 993.612 899.66 998.089 894.137 998.089H849.148C843.625 998.089 839.148 993.612 839.148 988.089V943.1ZM763.578 933.1C758.055 933.1 753.578 937.577 753.578 943.1V988.089C753.578 993.612 758.055 998.089 763.578 998.089H808.568C814.09 998.089 818.568 993.612 818.568 988.089V943.1C818.568 937.577 814.09 933.1 808.568 933.1H763.578Z" fill="black"/>
</svg>
